<svg viewBox="0 0 1020 834" role="img" aria-label="Use case diagram: projekt beállítása és hozzárendelések." xmlns="http://www.w3.org/2000/svg"><rect x="0" y="0" width="1020" height="834" fill="#FFFFFF"/><rect style="fill:none;stroke:#4B5266;stroke-width:1.2" x="226" y="30" width="638" height="778" rx="8"/><text style="fill:#4B5266;font-family:'Segoe UI','Helvetica Neue',Arial,sans-serif;font-size:11.5px;font-weight:700;letter-spacing:0.06em" x="246" y="52">Projekt beállítása</text><path style="fill:none;stroke:#AEB6CC;stroke-width:1" d="M 107 403.4 L 277 104"/><path style="fill:none;stroke:#AEB6CC;stroke-width:1" d="M 107 403.4 L 277 158"/><path style="fill:none;stroke:#AEB6CC;stroke-width:1" d="M 107 403.4 L 277 212"/><path style="fill:none;stroke:#AEB6CC;stroke-width:1" d="M 107 403.4 L 277 266"/><path style="fill:none;stroke:#79809A;stroke-width:1;stroke-dasharray:5 4" d="M 913 317.0 L 813 320"/><path style="fill:none;stroke:#AEB6CC;stroke-width:1" d="M 107 403.4 L 277 404"/><path style="fill:none;stroke:#AEB6CC;stroke-width:1" d="M 107 403.4 L 277 458"/><path style="fill:none;stroke:#AEB6CC;stroke-width:1" d="M 107 403.4 L 277 512"/><path style="fill:none;stroke:#AEB6CC;stroke-width:1" d="M 107 403.4 L 277 596"/><path style="fill:none;stroke:#AEB6CC;stroke-width:1" d="M 107 403.4 L 277 650"/><path style="fill:none;stroke:#AEB6CC;stroke-width:1" d="M 107 403.4 L 277 704"/><path style="fill:none;stroke:#AEB6CC;stroke-width:1" d="M 107 755.0 L 277 758"/><text style="fill:#33488A;font-family:'Segoe UI','Helvetica Neue',Arial,sans-serif;font-size:9.5px;font-weight:700;letter-spacing:0.11em" x="246" y="81">HOZZÁRENDELÉS</text><line style="stroke:#AEB6CC;stroke-width:1;stroke-dasharray:2 4" x1="246" y1="88" x2="844" y2="88"/><ellipse style="fill:#F4F6FB;stroke:#4B5266;stroke-width:1.2" cx="545" cy="104" rx="268" ry="24"/><text style="fill:#141826;font-family:'Segoe UI','Helvetica Neue',Arial,sans-serif;font-size:13px;font-weight:500" x="545" y="108.5" text-anchor="middle">Projektfelelős kijelölése</text><ellipse style="fill:#F4F6FB;stroke:#4B5266;stroke-width:1.2" cx="545" cy="158" rx="268" ry="24"/><text style="fill:#141826;font-family:'Segoe UI','Helvetica Neue',Arial,sans-serif;font-size:13px;font-weight:500" x="545" y="162.5" text-anchor="middle">Csapat hozzárendelése</text><ellipse style="fill:#F4F6FB;stroke:#4B5266;stroke-width:1.2" cx="545" cy="212" rx="268" ry="24"/><text style="fill:#141826;font-family:'Segoe UI','Helvetica Neue',Arial,sans-serif;font-size:13px;font-weight:500" x="545" y="216.5" text-anchor="middle">Alvállalkozó megbízása</text><ellipse style="fill:#E7EAF6;stroke:#33488A;stroke-width:1.4;stroke-dasharray:7 4" cx="545" cy="266" rx="268" ry="24"/><text style="fill:#2A3B72;font-family:'Segoe UI','Helvetica Neue',Arial,sans-serif;font-size:13px;font-weight:600" x="545" y="270.5" text-anchor="middle">Megbízások előzményének megtekintése</text><ellipse style="fill:#F4F6FB;stroke:#4B5266;stroke-width:1.2" cx="545" cy="320" rx="268" ry="24"/><text style="fill:#141826;font-family:'Segoe UI','Helvetica Neue',Arial,sans-serif;font-size:13px;font-weight:500" x="545" y="324.5" text-anchor="middle">Értesítés küldése az új felelősnek</text><text style="fill:#33488A;font-family:'Segoe UI','Helvetica Neue',Arial,sans-serif;font-size:9.5px;font-weight:700;letter-spacing:0.11em" x="246" y="381">MŰSZAKI ADATOK</text><line style="stroke:#AEB6CC;stroke-width:1;stroke-dasharray:2 4" x1="246" y1="388" x2="844" y2="388"/><ellipse style="fill:#F4F6FB;stroke:#4B5266;stroke-width:1.2" cx="545" cy="404" rx="268" ry="24"/><text style="fill:#141826;font-family:'Segoe UI','Helvetica Neue',Arial,sans-serif;font-size:13px;font-weight:500" x="545" y="408.5" text-anchor="middle">Projekt adatainak szerkesztése</text><ellipse style="fill:#F4F6FB;stroke:#4B5266;stroke-width:1.2" cx="545" cy="458" rx="268" ry="24"/><text style="fill:#141826;font-family:'Segoe UI','Helvetica Neue',Arial,sans-serif;font-size:13px;font-weight:500" x="545" y="462.5" text-anchor="middle">CEF alapadatok rögzítése</text><ellipse style="fill:#F4F6FB;stroke:#4B5266;stroke-width:1.2" cx="545" cy="512" rx="268" ry="24"/><text style="fill:#141826;font-family:'Segoe UI','Helvetica Neue',Arial,sans-serif;font-size:13px;font-weight:500" x="545" y="516.5" text-anchor="middle">BESS alapadatok rögzítése</text><text style="fill:#33488A;font-family:'Segoe UI','Helvetica Neue',Arial,sans-serif;font-size:9.5px;font-weight:700;letter-spacing:0.11em" x="246" y="573">ÉLETCIKLUS</text><line style="stroke:#AEB6CC;stroke-width:1;stroke-dasharray:2 4" x1="246" y1="580" x2="844" y2="580"/><ellipse style="fill:#F4F6FB;stroke:#4B5266;stroke-width:1.2" cx="545" cy="596" rx="268" ry="24"/><text style="fill:#141826;font-family:'Segoe UI','Helvetica Neue',Arial,sans-serif;font-size:13px;font-weight:500" x="545" y="600.5" text-anchor="middle">Fázis beállítása</text><ellipse style="fill:#F4F6FB;stroke:#4B5266;stroke-width:1.2" cx="545" cy="650" rx="268" ry="24"/><text style="fill:#141826;font-family:'Segoe UI','Helvetica Neue',Arial,sans-serif;font-size:13px;font-weight:500" x="545" y="654.5" text-anchor="middle">Státusz kézi rögzítése</text><ellipse style="fill:#F4F6FB;stroke:#4B5266;stroke-width:1.2" cx="545" cy="704" rx="268" ry="24"/><text style="fill:#141826;font-family:'Segoe UI','Helvetica Neue',Arial,sans-serif;font-size:13px;font-weight:500" x="545" y="708.5" text-anchor="middle">Váltás saját és alvállalkozói kivitelezés között</text><ellipse style="fill:#F4F6FB;stroke:#4B5266;stroke-width:1.2" cx="545" cy="758" rx="268" ry="24"/><text style="fill:#141826;font-family:'Segoe UI','Helvetica Neue',Arial,sans-serif;font-size:13px;font-weight:500" x="545" y="762.5" text-anchor="middle">Projekt törlése</text><path style="fill:none;stroke:#79809A;stroke-width:1" d="M 66 755.0 L 44 755.0 L 44 403.4 L 52 403.4"/><polygon style="fill:none;stroke:#79809A;stroke-width:1" points="52,397.4 52,409.4 65,403.4"/><g style="fill:none;stroke:#33488A;stroke-width:1.6;stroke-linecap:round"><circle cx="92" cy="388.4" r="7"/><line x1="92" y1="395.4" x2="92" y2="414.4"/><line x1="81" y1="403.4" x2="103" y2="403.4"/><line x1="92" y1="414.4" x2="83" y2="428.4"/><line x1="92" y1="414.4" x2="101" y2="428.4"/></g><text style="fill:#141826;font-family:'Segoe UI','Helvetica Neue',Arial,sans-serif;font-size:11.5px;font-weight:600" x="92" y="444.4" text-anchor="middle">Projektvezető</text><g style="fill:none;stroke:#33488A;stroke-width:1.6;stroke-linecap:round"><circle cx="92" cy="740.0" r="7"/><line x1="92" y1="747.0" x2="92" y2="766.0"/><line x1="81" y1="755.0" x2="103" y2="755.0"/><line x1="92" y1="766.0" x2="83" y2="780.0"/><line x1="92" y1="766.0" x2="101" y2="780.0"/></g><text style="fill:#141826;font-family:'Segoe UI','Helvetica Neue',Arial,sans-serif;font-size:11.5px;font-weight:600" x="92" y="796.0" text-anchor="middle">Adminisztrátor</text><g style="fill:none;stroke:#33488A;stroke-width:1.6;stroke-linecap:round"><circle cx="928" cy="302.0" r="7"/><line x1="928" y1="309.0" x2="928" y2="328.0"/><line x1="917" y1="317.0" x2="939" y2="317.0"/><line x1="928" y1="328.0" x2="919" y2="342.0"/><line x1="928" y1="328.0" x2="937" y2="342.0"/></g><text style="fill:#141826;font-family:'Segoe UI','Helvetica Neue',Arial,sans-serif;font-size:11.5px;font-weight:600" x="928" y="358.0" text-anchor="middle">Rendszer</text></svg>